<?xml version="1.0" encoding="UTF-8"?>
<svg width="85px" height="85px" viewBox="0 0 85 85" version="1.1" xmlns="http://www.w3.org/2000/svg" xmlns:xlink="http://www.w3.org/1999/xlink">
    <title>Star</title>
    <g id="Mocks" stroke="none" stroke-width="1" fill="none" fill-rule="evenodd">
        <g id="Desktop" transform="translate(-558.000000, -1108.000000)" fill="#914C00">
            <g id="Group-4" transform="translate(539.000000, 1084.000000)">
                <g id="Group-3" transform="translate(19.000000, 24.000000)">
                    <polygon id="Star" points="42.5 76.5 35.1199524 84.3543295 30.8713151 74.4495491 21.25 79.3060797 20.6452213 68.5455111 9.94311117 69.8184734 13.0551363 59.5 2.56306362 57.0358561 9.0165364 48.404038 0 42.5 9.0165364 36.595962 2.56306362 27.9641439 13.0551363 25.5 9.94311117 15.1815266 20.6452213 16.4544889 21.25 5.69392034 30.8713151 10.5504509 35.1199524 0.645670497 42.5 8.5 49.8800476 0.645670497 54.1286849 10.5504509 63.75 5.69392034 64.3547787 16.4544889 75.0568888 15.1815266 71.9448637 25.5 82.4369364 27.9641439 75.9834636 36.595962 85 42.5 75.9834636 48.404038 82.4369364 57.0358561 71.9448637 59.5 75.0568888 69.8184734 64.3547787 68.5455111 63.75 79.3060797 54.1286849 74.4495491 49.8800476 84.3543295"></polygon>
                </g>
            </g>
        </g>
    </g>
</svg>