<?xml version="1.0" encoding="UTF-8"?>
<svg width="533px" height="209px" viewBox="0 0 533 209" version="1.1" xmlns="http://www.w3.org/2000/svg" xmlns:xlink="http://www.w3.org/1999/xlink">
    <title>Logo</title>
    <defs>
        <path d="M72.5053101,162.5 L72.5053101,103.90625 L92.0365601,103.90625 L92.0365601,94.140625 L23.6771851,94.140625 L23.6771851,103.90625 L43.2084351,103.90625 L43.2084351,162.5 L72.5053101,162.5 Z M170.16156,162.5 L170.16156,152.734375 L131.09906,152.734375 L131.09906,133.203125 L160.395935,133.203125 L160.395935,123.4375 L131.09906,123.4375 L131.09906,103.90625 L170.16156,103.90625 L170.16156,94.140625 L101.802185,94.140625 L101.802185,162.5 L170.16156,162.5 Z M228.75531,162.5 L228.75531,103.90625 L248.28656,103.90625 L248.28656,94.140625 L179.927185,94.140625 L179.927185,103.90625 L199.458435,103.90625 L199.458435,162.5 L228.75531,162.5 Z M277.632263,162.5 L277.632263,133.203125 L297.114685,133.203125 L297.114685,162.5 L326.41156,162.5 L326.41156,133.203125 L316.645935,133.203125 L316.645935,123.4375 L326.41156,123.4375 L326.41156,103.90625 L316.645935,103.90625 L316.645935,94.140625 L258.052185,94.140625 L258.052185,162.5 L277.632263,162.5 Z M306.88031,123.4375 L287.34906,123.4375 L287.34906,103.90625 L306.88031,103.90625 L306.88031,123.4375 Z M394.770935,162.5 L394.770935,152.734375 L385.00531,152.734375 L385.00531,103.90625 L394.770935,103.90625 L394.770935,94.140625 L345.94281,94.140625 L345.94281,103.90625 L355.708435,103.90625 L355.708435,152.734375 L345.94281,152.734375 L345.94281,162.5 L394.770935,162.5 Z M472.895935,162.5 L472.895935,152.734375 L482.66156,152.734375 L482.66156,133.203125 L472.895935,133.203125 L472.895935,123.4375 L443.59906,123.4375 L443.59906,103.90625 L463.13031,103.90625 L463.13031,113.671875 L482.66156,113.671875 L482.66156,103.90625 L472.895935,103.90625 L472.895935,94.140625 L424.06781,94.140625 L424.06781,103.90625 L414.302185,103.90625 L414.302185,123.4375 L424.06781,123.4375 L424.06781,133.203125 L463.13031,133.203125 L463.13031,152.734375 L433.833435,152.734375 L433.833435,142.96875 L414.302185,142.96875 L414.302185,152.734375 L424.06781,152.734375 L424.06781,162.5 L472.895935,162.5 Z" id="path-1"></path>
        <filter x="-1.3%" y="-2.9%" width="101.7%" height="111.7%" filterUnits="objectBoundingBox" id="filter-2">
            <feOffset dx="-4" dy="4" in="SourceAlpha" result="shadowOffsetOuter1"></feOffset>
            <feColorMatrix values="0 0 0 0 0.800184429   0 0 0 0 0.647488892   0 0 0 0 0.0880687162  0 0 0 1 0" type="matrix" in="shadowOffsetOuter1"></feColorMatrix>
        </filter>
    </defs>
    <g id="Logo" stroke="none" stroke-width="1" fill="none" fill-rule="evenodd">
        <g id="logo" transform="translate(10.322815, 10.500000)">
            <polygon id="Path" stroke="#00006C" stroke-width="20" fill="#FFCE00" points="0 1.80120723e-13 9.10394767e-13 188.443789 512.506692 188.443789 512.506692 69.6820068 186.384949 69.6820068 186.384949 1.80120723e-13"></polygon>
            <path d="M35.4252319,71.5 L35.4252319,53.921875 L47.1146851,53.921875 L47.1146851,71.5 L64.6928101,71.5 L64.6928101,53.921875 L58.8334351,53.921875 L58.8334351,48.0625 L64.6928101,48.0625 L64.6928101,36.34375 L58.8334351,36.34375 L58.8334351,30.484375 L23.6771851,30.484375 L23.6771851,71.5 L35.4252319,71.5 Z M52.9740601,48.0625 L41.2553101,48.0625 L41.2553101,36.34375 L52.9740601,36.34375 L52.9740601,48.0625 Z M111.56781,71.5 L111.56781,65.640625 L88.1303101,65.640625 L88.1303101,53.921875 L105.708435,53.921875 L105.708435,48.0625 L88.1303101,48.0625 L88.1303101,36.34375 L111.56781,36.34375 L111.56781,30.484375 L70.5521851,30.484375 L70.5521851,71.5 L111.56781,71.5 Z M152.583435,71.5 L152.583435,65.640625 L158.44281,65.640625 L158.44281,36.34375 L152.583435,36.34375 L152.583435,30.484375 L117.427185,30.484375 L117.427185,71.5 L152.583435,71.5 Z M146.72406,65.640625 L135.034607,65.640625 L135.00531,36.34375 L146.72406,36.34375 L146.72406,65.640625 Z" id="Red" fill="#FF3601" fill-rule="nonzero"></path>
            <g id="Tetris" fill-rule="nonzero">
                <use fill="black" fill-opacity="1" filter="url(#filter-2)" xlink:href="#path-1"></use>
                <use fill="#FFFFFF" xlink:href="#path-1"></use>
            </g>
        </g>
    </g>
</svg>